# xmcd
#
# Track frame offsets:
#	150
#	17857
#	38289
#	53861
#	68442
#	91871
#	107372
#	125546
#	144478
#	166473
#	182448
#	201124
#	219659
#	236035
#	251491
#
# Disc length: 3600 seconds
#
# Revision: 0
# Processed by: cddbd v1.4PL0 Copyright (c) Steve Scherf et al.
# Submitted via: EasyCDDAExtractor 4.6.9.1
#
DISCID=c20e0e0f
DTITLE=Michael Jones - EN REPASSANT 2-2-2002
DYEAR=2002
DGENRE=
TTITLE0=Le temps fait mentir
TTITLE1=P'tit blues peinard
TTITLE2=Elle attend
TTITLE3=Un grand frère - the voice
TTITLE4=Dust my blues
TTITLE5=Je commence demain
TTITLE6=Say it ain't so Joe
TTITLE7=Pas toi
TTITLE8=Tobacco road
TTITLE9=Boogie woogie man
TTITLE10=Va-t'en
TTITLE11=La route est longue
TTITLE12=L'irlandaise
TTITLE13=Je te donne
TTITLE14=Gimme some lovin'
EXTD=
EXTT0=
EXTT1=
EXTT2=
EXTT3=
EXTT4=
EXTT5=
EXTT6=
EXTT7=
EXTT8=
EXTT9=
EXTT10=
EXTT11=
EXTT12=
EXTT13=
EXTT14=
PLAYORDER=
